<svg height="786.14667" viewBox="0 0 786.14667 786.14667" width="786.14667" xmlns="http://www.w3.org/2000/svg"><g transform="matrix(.13333333 0 0 -.13333333 0 786.14667)"><path d="m5089.41 3432.38c-7.53-103.27-27.41-206.36-52.81-306.6-10.54-41.55-22.35-82.88-36.51-123.37-10.54 3.29-22.05 4.37-32.63 5.16-50.12 3.71-101.78-3.83-150.97-12.76-4.51-.82-9.04-1.67-13.56-2.55 14.4 71.79 44.87 139.88 72.93 207.11 19.49 46.69 36.61 94.29 55.75 141.13 17.81 43.58 36.87 86.8 58.82 128.47 15.95 30.25 34.08 68.16 62 89.38 4.64 3.53 7.27 5.05 11.84 6.13 1.57.37 2.57 1.1 6.51-2.15 8.37-6.93 13.98-26.69 16.94-39.35 6.41-27.28 3.85-60.95 1.69-90.6zm-153.89-563.05c-18.6-23.11-49.05-34.18-76.62-42.66-38.12-11.71-78.11-18.24-117.99-18.63-30.93-.3-69.88 1.48-95.34 21.6-8.73 6.9-14.66 16.2-16.19 27.27-1.39 10.21.54 25.79 5.37 37.55 2.83 2.23 4.73 5.38 4.88 8.96l1.22 1.59c10.35 12.09 33.28 19.67 47.55 25.33 22.23 8.83 45.2 15.82 68.34 21.88 4.04 1.05 8.1 2.04 12.17 3.05 2.54-12.56 25.65-14.53 28.07.06.37 2.21.67 4.44.98 6.66 36.64 7.83 73.83 13.42 111.11 16.11 20.19 1.45 40.63 2.22 60.83.49 6.52-.56 12.99-1.44 19.31-3.13l.96-.27-.61-1.64c-13.81-35.97-29.67-73.94-54.04-104.22zm-344.7-54.74c-7.54 1.36-16.87 10.6-22.39 15.5-16.55 14.7-30.02 32.52-40.89 51.74-10.5 18.57-35.5 68.26-12.75 86.6 16.32 8.62 63.94-28.58 87.03-57.52 2.08-2.85 4.21-5.66 6.31-8.5-5.58-14.48-8.82-30.28-7.53-45.5.84-9.91 3.68-18.71 7.94-26.55-3.7-7.6-9.45-17.24-17.72-15.77zm-43.54 305.99c3.53 6.56 11.24 13.38 16.21 13.15 9.35-.44 19.84-9.33 26.69-14.82 12.72-10.24 24.07-22.37 34.57-34.84 15.42-18.33 29.9-38.74 41.08-60.56 4.81-15.51 10.47-30.68 17.7-44.81 7.52-14.71 30.48-4.42 26.3 11.1-3.6 13.36-8.6 26.31-14.6 38.84-4.68 14.7-8.92 29.57-12.9 44.49-11.96 44.9-21.68 90.45-29.16 136.31-7.95 48.66-13.41 98.06-12.96 147.42.35 37.49 2.52 80.74 22.93 113.51 5.55 8.9 16.02 18.58 22.61 21.48 7.46 3.28 10.5 2.54 16.45-1.87 5.12-3.81 11.91-13.09 16.7-22.15 6.39-12.07 10.93-25 14.93-38.02 24.3-79.1 30.82-164.38 35.67-246.56 2.67-45.17 4.07-90.45 3.82-135.72-.1-17.23-.42-34.49-1.28-51.71-.17-3.39-.36-6.78-.58-10.17-37.48-8.55-74.52-19.66-109.4-35.43-12.23-5.53-26.93-12.01-37.61-21.56l-.62.79c-14.99 20.88-29.05 42.43-41.8 64.73-16.41 28.72-33.09 60.29-37.98 93.43-1.58 10.73-2.07 23.14 3.23 32.97zm572.55 376.2c-1.38 29.66-7.71 73.43-35.11 90.8-28.44 18.03-56.99-10.14-73.52-31.08-29.67-37.57-51.11-81.66-71.17-124.89-20.36-43.86-38.79-88.65-56.1-133.8-26.48-69.05-57.26-136.58-82.13-206.21-.43 24.18-1.24 48.35-2.46 72.49-4.48 88.69-11.02 180.65-35.68 266.37-12.78 44.46-47.96 123.7-104.88 77.98-29.67-23.83-39.47-64.52-44.06-100.48-6.38-50.01-3.05-101.1 2.89-150.98 6.09-51.11 15.28-101.87 27.08-151.97-18.86 22.94-43.02 48.44-71.45 55.99-27.51 7.3-51.87-17.66-57.17-43.08-7.23-34.72 7.92-71.72 22.41-102.55 4.58-9.75 9.53-19.35 14.72-28.81-14.13 6.34-35.13 15.3-48.27 9.72-10.83-4.59-18.93-14.85-23.06-25.58-9.8-25.47-1.18-55.25 8.96-79.2 10.75-25.4 26.11-49.82 45.28-70.05l-.58-2.39c-8.63-50.27-13.86-101.02-21.91-151.37-7.77-48.69-16.18-102.45-39.06-146.72-22.72-43.98-67.59-69.47-114.42-69.69-46.74-.2-93.49.02-140.24.02-107.29 0-214.59 0-321.88 0-111.43 0-222.86 0-334.29 0-58.79 0-118.15 2.42-176.9 0h-2.6c-22.28 0-22.32-34.62 0-34.62h150.58 332.26 334.67c52.6 0 105.18-.12 157.77 0 42.02.1 83.87 15.71 114.19 45.17 31.87 30.95 46.11 74.01 57.01 115.99 13.23 51.02 19.94 103.42 26.93 155.57 2.75 20.53 5.57 41.05 8.83 61.5 8.16-5.48 17.09-9.59 26.15-9.25 15.69.57 27.36 9.72 35.63 21.75 10.33-8.16 22.7-14.3 35.73-18.47 39.12-12.53 82.83-11.44 123.13-6.51 42.22 5.17 84.54 15 123.15 33.24 32.85 15.51 53.37 39.7 71 71.04 9.94 17.68 18.64 36.09 26.54 54.87.33-2.63.61-5.26.77-7.92 1.42-22.03-2.39-43.98-7.86-65.25-9.67-37.57-23.57-74.47-40.28-109.46-61.86-129.46-157.78-237.93-229.14-361.67-14.3-24.81-27.18-50.37-37.31-77.18-6.55-17.35 21.26-24.84 27.76-7.65 24.48 64.79 66.17 123.02 105.14 179.69 45.7 66.44 92.93 132.11 132.46 202.51 18.59 33.13 35.35 67.35 48.65 102.97 15.44 41.31 30.72 85.74 29.6 130.45-.44 17.56-2.09 41.43-12.92 57.36 4.65 13.17 9.06 26.4 13.27 39.62 35.6 111.64 59.42 227.84 73.89 344.06 5.23 42.11 10 85.17 8 127.67" fill="#040606"/><path d="m1919.71 2513.44c-76.58-41.26-161.34-61.98-248.25-62.14-29.15-.06-463.33 0-491.53 0-22.27 0-22.31-34.62 0-34.62 75.27 0 401.36-.08 489.14 0 93.92.09 185.33 22.27 268.11 66.87 19.62 10.56 2.16 40.47-17.47 29.89" fill="#040606"/><path d="m3215.36 2438.46c-101.06.57-211.63 32.69-285.88 104.25-34.65 33.38-59.77 74.02-76.52 118.12 4.73 22.81 9.44 45.61 14.17 68.4 2.94 14.21 5.89 28.41 8.83 42.62 4.5 21.74-28.86 31.03-33.39 9.2-3.19-15.44-6.39-30.87-9.59-46.31-4.09 23.96-6.14 48.31-6.28 72.52-.13 22.26-34.75 22.31-34.62 0 .28-50.54 8.2-101.56 24.99-149.33-12.21-58.91-40.73-196.66-42.8-206.63-79.16 0-701.71 0-732.4 0-22.28 0-22.32-34.62 0-34.62h746.46c7.19 0 15.17 5.33 16.69 12.71 12.02 58.01 24.03 116.02 36.04 174.03 6.47-11.99 13.54-23.68 21.4-34.92 47.39-67.75 117.17-111.79 194.56-138.59 50.86-17.6 104.59-25.78 158.34-26.07 22.28-.13 22.31 34.49 0 34.62" fill="#040606"/><path d="m1730.57 2921.68c-32.24-34.48-69.25-50.53-116.49-50.53h-57.96l60.55 296.35h45.28c37.75 0 66-10.51 86.42-32.17l.97-1.01c22.35-23.02 32.77-52.13 32.77-91.64 0-44.38-16.87-83.95-51.54-121zm1948.28 246.98h177.51l-234.5-279.1c1.79 7.67 3.5 15.44 5.11 23.34zm930.5 352.98h-1232.03l-114.64-562.45c-19.37-93.18-56.12-100.9-95.27-100.9-59.42 0-59.42 24.12-59.42 45.41 0 8.59.44 17.21 1.34 26.35l121.74 591.59h-304.68-69.93-679.73l-56.28-276.27c-22.58 54.75-56.17 103.83-100.66 146.86-88.78 85.87-203.29 129.41-340.32 129.41h-364.67l-204.44-1003.47h500.22c149.39 0 288.65 60.11 392.11 169.26 1.76 1.88 3.49 3.78 5.24 5.68l-35.64-174.94h757.19l43.93 212.09c26.1-61.96 67.1-113.65 119.92-148.54l.96-.62c78.21-50.29 165-75.77 257.94-75.77 60.68 0 121.69 12.84 121.69 12.84h1026.96l70.59 352.98h-306.35z" fill="#eedb2a"/><path d="m1730.57 2921.68-2.67 2.49c-31.72-33.83-67.41-49.31-113.82-49.38h-53.5l59.06 289.08 42.31-.01c37.11-.04 64.11-10.23 83.77-31.03l.97-1.02.03-.02c21.61-22.32 31.7-50.2 31.74-89.11-.03-43.42-16.37-81.93-50.55-118.5l2.66-2.5 2.66-2.49c35.17 37.53 52.56 78.17 52.52 123.49.05 40.11-10.71 70.46-33.8 94.18l.03-.03-.97 1.02c-21.18 22.49-50.68 33.34-89.06 33.3h-48.26l-62.04-303.65h62.43c48.06-.06 86.39 16.57 119.15 51.7zm1948.28 246.98v-3.64h169.69l-229.48-273.11 2.8-2.35 3.54-.83c1.81 7.7 3.52 15.51 5.14 23.45l51.88 255.76-3.57.72v-3.64 3.64l-3.57.73-51.88-255.76c-1.6-7.86-3.3-15.6-5.09-23.23l-3.5-14.86 249.37 296.77h-188.31l-.59-2.92zm930.5 352.98v3.65h-1235l-115.25-565.37c-9.59-46.19-23.42-70.55-38.95-83.31-15.51-12.74-33.33-14.66-52.74-14.67-14.61 0-25.41 1.5-33.27 3.94-11.81 3.74-16.89 9.16-19.67 15.53-2.76 6.42-2.86 14.31-2.84 22.29 0 8.47.43 16.96 1.32 26l-3.62.35 3.57-.73 122.64 595.97h-309.15-69.93-682.71l-56.87-279.19 3.57-.73 3.37 1.4c-22.77 55.21-56.67 104.73-101.5 148.08-89.46 86.56-205.06 130.47-342.85 130.44h-367.64l-205.93-1010.77h504.68c150.37-.01 290.63 60.55 394.75 170.41 1.8 1.91 3.54 3.83 5.28 5.71l-2.68 2.47-3.57.73-36.53-179.32h764.62l44.53 215-3.57.74-3.36-1.41c26.35-62.54 67.78-114.84 121.27-150.17l.97-.63.02-.01c78.77-50.66 166.31-76.36 259.92-76.36 61.17.01 122.3 12.9 122.44 12.92l-.75 3.57v-3.65h1029.95l72.05 360.27h-303.01l544.22 650.5h-7.78v-3.65l-2.8 2.34-549.24-656.48h309.72l-69.14-345.69h-1024.36l-.37-.07c-.01-.01-3.75-.79-10.37-1.99-19.88-3.59-65.43-10.78-110.56-10.78-92.28.01-178.32 25.28-255.97 75.19l.02-.01-.96.62c-52.14 34.45-92.7 85.54-118.55 146.9l-4.55 10.79-45.71-220.64h-749.75l37.32 183.33-8.83-9.57c-1.76-1.91-3.48-3.8-5.22-5.65-102.79-108.43-241.04-168.11-389.45-168.12h-495.76l202.96 996.19h361.69c136.27-.03 249.68-43.21 337.78-128.39 44.16-42.7 77.44-91.35 99.83-145.62l4.56-11.08 58.06 285.1 676.76-.01h69.93 300.21l-120.89-587.4-.01-.19c-.91-9.25-1.36-18-1.36-26.71.04-10.56-.19-23.02 8.3-33.05 4.24-4.96 10.5-9 19.34-11.73 8.85-2.75 20.33-4.26 35.43-4.27 19.74-.01 39.87 1.93 57.37 16.34 17.46 14.4 31.69 40.49 41.46 87.47l114.06 559.54h302.77 67.36 858.92v3.64l-2.8 2.34z" fill="#eedb2a"/><g fill="#f19319"><path d="m1795.93 2860.58c-48.96-52.36-110.14-78.91-181.85-78.91h-167.57l97.12 475.31h118.32c62.84 0 113.81-20.28 151.56-60.31 38.53-39.67 58.07-91.48 58.07-153.99 0-67.21-25.45-128.48-75.65-182.1zm161.65 467.33c-71.53 69.18-165.09 104.25-278.11 104.25h-291.58l-167.99-824.52h390.68c124.58 0 240.77 50.2 327.16 141.35 81.17 85.63 127.72 199.49 127.72 312.37 0 107.64-36.3 197.31-107.88 266.55"/><path d="m2081.84 2607.64h574.8l36.05 174.03h-383.1l32.92 163.49h350.37l33.6 170.52h-350.29l29.36 142.46h374.88l36.04 174.02h-566.66z"/><path d="m3640.99 3432.16h-190.59l-100.12-491.18c-24.08-115.85-83.89-172.16-182.87-172.16-94.63 0-148.89 49.16-148.89 134.88 0 13.06.74 26.17 2.27 40.05l100.52 488.41h-191.77l-87.27-428.14-.01-.04c-7.82-40.19-11.78-76.28-11.78-107.29 0-104.07 41.92-193.9 112.19-240.33 63.55-40.85 134.06-61.56 209.56-61.56 108.87 0 193.09 27.31 257.47 83.48 63.89 55.77 106.28 138.32 129.58 252.41z"/><path d="m4417.82 3432.16h-661.4l-34.8-174.02h326.8l-546.56-650.5h725.66l34.8 174.03h-388.73z"/></g><path d="m1033.37 3257.83c9.13 65.1 48.05-17.05 46.72-44.43-.72-14.93-4.68-26.97-10.71-36.58-24.32 17.88-40.32 50.36-36.01 81.01zm-156.69 28.86c-15.235 32.72-28.086 66.93-37.586 101.77-7.219 26.45-31.145 122.56 22.027 72.72 51.977-48.7 59.262-136.84 31.281-206.44-5.593 10.64-10.808 21.39-15.722 31.95zm346.22-57.32c-15.87-55.27-65.83-82.38-116.58-69.49 17.8 31.87 20.04 72.93 5.4 110.32-17.62 44.99-82.14 93.9-111.17 30.13-24.612-54.03-4.3-111.96 36.21-148.22-26.13-8.07-58.772-.69-82.612 19.7-14.734 12.6-27.312 27.73-38.464 44.02 10.703 19.44 19.218 39.95 25.476 60.08 21.738 69.92 6.516 144.11-39.676 201.46-28.078 34.85-95.398 70.32-113.117 6.93-12.359-44.25 7.602-100.66 21.977-142.55 12.449-36.26 31.582-85.85 58.015-130.3-19.531-26.31-45.73-46.27-77.89-54.46-25.762-6.57-14.844-46.45 10.984-39.87 36.289 9.24 65.93 31.98 89.145 60.87 37.507-50.12 86.504-84.94 148.272-69.33 14.64 3.7 27.3 9.93 38.12 17.92 7.02-2.98 14.23-5.56 21.69-7.33 76.4-18.04 142.95 25.53 164.07 99.12 7.37 25.63-32.52 36.56-39.85 11" fill="#040606"/></g></svg>