<svg id="Calque_1" data-name="Calque 1" xmlns="http://www.w3.org/2000/svg" viewBox="0 0 434.45 129.06"><defs><style>.cls-1{fill:#010101;}.cls-2{fill:#f8db33;stroke:#f8db33;stroke-miterlimit:10;stroke-width:0.73px;}.cls-3{fill:#f19e10;}</style></defs><path class="cls-1" d="M435.7,10.49c-.14-3-.77-7.34-3.51-9.08s-5.7,1-7.36,3.11A62.16,62.16,0,0,0,417.72,17c-2,4.38-3.88,8.86-5.61,13.38-2.65,6.9-5.73,13.66-8.22,20.62q-.06-3.63-.24-7.25c-.45-8.87-1.1-18.07-3.57-26.64-1.28-4.44-4.8-12.37-10.49-7.8-3,2.39-3.95,6.46-4.41,10.05a62.55,62.55,0,0,0,.29,15.1,137.42,137.42,0,0,0,2.71,15.2c-1.88-2.3-4.3-4.85-7.14-5.6s-5.19,1.76-5.72,4.31c-.72,3.47.79,7.17,2.24,10.25q.69,1.47,1.47,2.88c-1.41-.63-3.51-1.53-4.82-1a4.51,4.51,0,0,0-2.31,2.56c-1,2.55-.12,5.52.9,7.92a23.62,23.62,0,0,0,4.52,7,2,2,0,0,0-.05.24c-.87,5-1.39,10.1-2.19,15.14-.78,4.87-1.62,10.25-3.91,14.67a12.91,12.91,0,0,1-11.44,7c-4.68,0-9.35,0-14,0H280.09c-5.88,0-11.82-.24-17.69,0h-.26a1.73,1.73,0,0,0,0,3.46h81.75c5.26,0,10.52,0,15.77,0A16.47,16.47,0,0,0,371.08,114c3.19-3.09,4.62-7.4,5.7-11.6a130,130,0,0,0,2.7-15.55c.27-2.06.55-4.11.88-6.15a4.07,4.07,0,0,0,6.18-1.25,11.54,11.54,0,0,0,3.57,1.85c3.91,1.25,8.28,1.14,12.31.65a40.42,40.42,0,0,0,12.32-3.33,15.74,15.74,0,0,0,7.1-7.1A54.39,54.39,0,0,0,424.49,66c0,.26.06.53.08.79a20.89,20.89,0,0,1-.79,6.53,60.3,60.3,0,0,1-4,10.94c-6.19,13-15.78,23.8-22.92,36.17a52.76,52.76,0,0,0-3.73,7.72c-.65,1.73,2.13,2.48,2.78.76,2.44-6.47,6.61-12.3,10.51-18,4.57-6.64,9.3-13.21,13.25-20.25a73.77,73.77,0,0,0,4.86-10.29c1.55-4.13,3.07-8.58,3-13,0-1.75-.21-4.14-1.29-5.73.47-1.32.91-2.64,1.33-4a191.49,191.49,0,0,0,7.39-34.4A75.81,75.81,0,0,0,435.7,10.49ZM378.44,48.11c.35-.66,1.12-1.34,1.62-1.31a5.54,5.54,0,0,1,2.67,1.48,25.29,25.29,0,0,1,3.46,3.48,33.29,33.29,0,0,1,4.11,6.06,27.29,27.29,0,0,0,1.77,4.48c.75,1.47,3,.44,2.63-1.11a22.4,22.4,0,0,0-1.46-3.88c-.47-1.48-.9-3-1.29-4.45-1.2-4.49-2.17-9-2.92-13.64a87.69,87.69,0,0,1-1.3-14.74c0-3.75.26-8.07,2.3-11.35A6.41,6.41,0,0,1,392.29,11a1.32,1.32,0,0,1,1.64.19,7.32,7.32,0,0,1,1.67,2.22,21.45,21.45,0,0,1,1.5,3.8c2.43,7.91,3.08,16.44,3.56,24.65.27,4.52.41,9,.39,13.58,0,1.72-.05,3.44-.13,5.17l-.06,1a57.78,57.78,0,0,0-10.94,3.55,14.91,14.91,0,0,0-3.76,2.15l-.06-.08a72.08,72.08,0,0,1-4.18-6.47c-1.65-2.87-3.31-6-3.8-9.34A5.39,5.39,0,0,1,378.44,48.11Zm4.36,30.6a6.15,6.15,0,0,1-2.24-1.55A19.87,19.87,0,0,1,376.47,72c-1.05-1.86-3.55-6.83-1.28-8.66,1.64-.87,6.4,2.85,8.71,5.75.2.28.42.56.63.85a10.38,10.38,0,0,0-.76,4.55,6.68,6.68,0,0,0,.8,2.65C384.2,77.89,383.62,78.86,382.8,78.71Zm34.46-5.47c-1.85,2.31-4.9,3.41-7.66,4.26a41.43,41.43,0,0,1-11.8,1.86c-3.09,0-7-.14-9.53-2.16a4.19,4.19,0,0,1-1.62-2.72,8.23,8.23,0,0,1,.54-3.76,1.22,1.22,0,0,0,.49-.89l.12-.16c1-1.21,3.33-2,4.75-2.54A58.47,58.47,0,0,1,399.39,65l1.21-.31c.26,1.26,2.57,1.45,2.81,0,0-.23.07-.45.1-.67a81.7,81.7,0,0,1,11.11-1.61,38.57,38.57,0,0,1,6.08,0,11.42,11.42,0,0,1,1.93.31l.1,0-.06.16C421.29,66.41,419.7,70.21,417.26,73.24Zm15.39-56.31a177.94,177.94,0,0,1-5.28,30.66c-1.05,4.16-2.23,8.29-3.65,12.34a14.67,14.67,0,0,0-3.26-.52,60.37,60.37,0,0,0-15.1,1.28l-1.35.25c1.44-7.18,4.48-14,7.29-20.71,1.95-4.67,3.66-9.43,5.57-14.11,1.79-4.36,3.69-8.68,5.89-12.85,1.59-3,3.4-6.81,6.2-8.94a2.79,2.79,0,0,1,1.18-.61c.16,0,.26-.11.65.22.84.69,1.4,2.67,1.7,3.93C433.13,10.6,432.87,14,432.65,16.93Z" transform="translate(-1.29 -0.83)"/><path class="cls-1" d="M115.68,108.83A52.38,52.38,0,0,1,90.86,115H41.71a1.73,1.73,0,0,0,0,3.46c7.52,0,40.13,0,48.91,0a56.35,56.35,0,0,0,26.81-6.69C119.39,110.76,117.65,107.77,115.68,108.83Z" transform="translate(-1.29 -0.83)"/><path class="cls-1" d="M245.25,116.32c-10.11,0-21.16-3.27-28.59-10.42A32,32,0,0,1,209,94.08c.47-2.28.94-4.55,1.42-6.83.29-1.43.58-2.85.88-4.27.45-2.17-2.89-3.1-3.34-.92l-1,4.63a45.21,45.21,0,0,1-.63-7.25,1.73,1.73,0,0,0-3.46,0,46,46,0,0,0,2.5,14.94c-1.22,5.89-4.07,19.66-4.28,20.66H127.9a1.73,1.73,0,0,0,0,3.46h74.65a1.76,1.76,0,0,0,1.67-1.27l3.6-17.4a34.69,34.69,0,0,0,2.14,3.49c4.74,6.77,11.72,11.18,19.46,13.86a49.19,49.19,0,0,0,15.83,2.6C247.48,119.8,247.48,116.34,245.25,116.32Z" transform="translate(-1.29 -0.83)"/><path class="cls-2" d="M384.65,8H261.45L250,64.25c-1.94,9.32-5.61,10.09-9.53,10.09-5.94,0-5.94-2.41-5.94-4.54,0-.86.05-1.72.14-2.64L246.82,8H141.39l-5.63,27.63A43.26,43.26,0,0,0,125.69,21C116.81,12.36,105.36,8,91.66,8H55.19L34.75,108.35h50A53.54,53.54,0,0,0,124,91.42c.18-.18.35-.37.53-.56l-3.57,17.49h75.72l4.39-21.21a32.81,32.81,0,0,0,12,14.86l.09.06a47,47,0,0,0,25.8,7.58,67.47,67.47,0,0,0,12.16-1.29H353.8l7.06-35.3H330.23Zm-93,35.3h17.75L285.9,71.21c.18-.76.35-1.54.51-2.33ZM96.77,68a15,15,0,0,1-11.65,5H79.33l6-29.63h4.53c3.77,0,6.6,1,8.64,3.22l.1.1c2.23,2.3,3.27,5.21,3.27,9.16C101.92,60.34,100.24,64.3,96.77,68Z" transform="translate(-1.29 -0.83)"/><path class="cls-3" d="M119.47,27.38C112.32,20.46,103,17,91.66,17H62.5L45.7,99.4H84.77a44.72,44.72,0,0,0,32.72-14.13A46.05,46.05,0,0,0,130.26,54C130.26,43.27,126.63,34.3,119.47,27.38ZM103.31,74.11A24,24,0,0,1,85.12,82H68.36l9.72-47.53H89.91c6.28,0,11.38,2,15.15,6s5.81,9.15,5.81,15.4C110.87,62.62,108.33,68.75,103.31,74.11Z" transform="translate(-1.29 -0.83)"/><polygon class="cls-3" points="130.61 98.57 188.09 98.57 191.69 81.17 153.38 81.17 156.67 64.82 191.71 64.82 195.07 47.77 160.04 47.77 162.98 33.52 200.47 33.52 204.07 16.12 147.41 16.12 130.61 98.57"/><path class="cls-3" d="M287.81,17H268.75l-10,49.12c-2.41,11.59-8.39,17.22-18.29,17.22-9.46,0-14.89-4.92-14.89-13.49a37.06,37.06,0,0,1,.23-4L235.84,17H216.67l-8.73,42.82h0a57.41,57.41,0,0,0-1.18,10.73c0,10.41,4.19,19.39,11.22,24a38.15,38.15,0,0,0,21,6.16c10.88,0,19.31-2.73,25.74-8.35s10.63-13.83,13-25.24Z" transform="translate(-1.29 -0.83)"/><polygon class="cls-3" points="364.21 16.12 298.06 16.12 294.58 33.52 327.26 33.52 272.61 98.57 345.18 98.57 348.66 81.17 309.78 81.17 364.21 16.12"/><path class="cls-1" d="M46,37.23a9.46,9.46,0,0,1-11.66,7,13,13,0,0,0,.54-11c-1.76-4.5-8.21-9.39-11.11-3-2.46,5.4-.43,11.19,3.62,14.82a9.05,9.05,0,0,1-8.26-2,22.52,22.52,0,0,1-3.85-4.4,33.23,33.23,0,0,0,2.55-6,21.66,21.66,0,0,0-4-20.15C11.05,9,4.32,5.4,2.55,11.74,1.31,16.16,3.31,21.81,4.75,26a71.25,71.25,0,0,0,5.8,13,14,14,0,0,1-7.79,5.45c-2.58.66-1.48,4.64,1.1,4a16.91,16.91,0,0,0,8.91-6.09c3.75,5,8.65,8.49,14.83,6.93a10.82,10.82,0,0,0,3.81-1.79,13.18,13.18,0,0,0,2.17.73c7.64,1.81,14.3-2.55,16.41-9.91C50.72,35.77,46.74,34.68,46,37.23ZM11.38,31.5A64.37,64.37,0,0,1,7.62,21.32C6.9,18.68,4.51,9.07,9.83,14.05S15.75,27.73,13,34.69C12.39,33.63,11.87,32.56,11.38,31.5Zm15.67,2.89c.91-6.51,4.8,1.7,4.67,4.44a7.46,7.46,0,0,1-1.07,3.66A9,9,0,0,1,27.05,34.39Z" transform="translate(-1.29 -0.83)"/></svg>